<svg width="128" height="128" viewBox="0 0 128 128" fill="none" xmlns="http://www.w3.org/2000/svg">
<g id="bed 1">
<g id="Group">
<path id="Vector" d="M97.92 49.408H100.096V58.496H97.92V49.408Z" fill="#E0E0E0"/>
<path id="Vector_2" d="M88.704 49.408H90.88V58.496H88.704V49.408Z" fill="#E0E0E0"/>
<path id="Vector_3" d="M79.488 49.408H81.664V58.496H79.488V49.408Z" fill="#E0E0E0"/>
<path id="Vector_4" d="M70.4 49.408H72.576V58.496H70.4V49.408Z" fill="#E0E0E0"/>
<path id="Vector_5" d="M61.184 49.408H63.36V58.496H61.184V49.408Z" fill="#E0E0E0"/>
<path id="Vector_6" d="M51.968 49.408H54.144V58.496H51.968V49.408Z" fill="#E0E0E0"/>
<path id="Vector_7" d="M56.192 61.696C56.832 60.416 56.32 58.88 55.04 58.112L18.432 38.912C16.64 38.016 14.592 39.168 14.592 41.216L14.464 45.056C14.464 46.08 14.976 46.976 15.872 47.488L42.112 61.312C42.368 61.44 42.624 61.568 43.008 61.568L53.632 63.104C54.528 63.36 55.68 62.848 56.192 61.696V61.696Z" fill="#A0C8D7"/>
<path id="Vector_8" d="M17.536 57.856H110.592V66.048H17.536V57.856Z" fill="#A0C8D7"/>
<path id="Vector_9" d="M114.304 38.528C112.128 38.656 110.592 40.576 110.592 42.624V66.048H17.536V35.584C17.536 33.408 16 31.488 13.824 31.488C11.52 31.36 9.728 33.152 9.728 35.456V69.76C9.728 72.064 11.52 73.856 13.824 73.856H113.408C116.224 73.856 118.4 71.552 118.4 68.864V42.496C118.4 40.192 116.48 38.4 114.304 38.528Z" fill="#E0E0E0"/>
<path id="Vector_10" d="M105.984 82.304H95.36V71.808H90.112V82.304H38.144V71.808H32.896V82.304H21.76C20.096 82.304 18.688 83.712 18.688 85.376C18.688 87.04 20.096 88.448 21.76 88.448H105.856C107.52 88.448 108.928 87.04 108.928 85.376C108.928 83.712 107.648 82.304 105.984 82.304V82.304Z" fill="#E0E0E0"/>
<path id="Vector_11" d="M35.584 96.512C39.1893 96.512 42.112 93.5893 42.112 89.984C42.112 86.3787 39.1893 83.456 35.584 83.456C31.9787 83.456 29.056 86.3787 29.056 89.984C29.056 93.5893 31.9787 96.512 35.584 96.512Z" fill="#333333"/>
<path id="Vector_12" d="M35.584 93.312C37.422 93.312 38.912 91.822 38.912 89.984C38.912 88.146 37.422 86.656 35.584 86.656C33.746 86.656 32.256 88.146 32.256 89.984C32.256 91.822 33.746 93.312 35.584 93.312Z" fill="#E0E0E0"/>
<path id="Vector_13" d="M92.672 96.512C96.2773 96.512 99.2 93.5893 99.2 89.984C99.2 86.3787 96.2773 83.456 92.672 83.456C89.0667 83.456 86.144 86.3787 86.144 89.984C86.144 93.5893 89.0667 96.512 92.672 96.512Z" fill="#333333"/>
<path id="Vector_14" d="M92.672 93.312C94.51 93.312 96 91.822 96 89.984C96 88.146 94.51 86.656 92.672 86.656C90.834 86.656 89.344 88.146 89.344 89.984C89.344 91.822 90.834 93.312 92.672 93.312Z" fill="#E0E0E0"/>
<path id="Vector_15" d="M103.552 50.176H48.128C47.36 50.176 46.72 49.536 46.72 48.768C46.72 48 47.36 47.36 48.128 47.36H103.552C104.32 47.36 104.96 48 104.96 48.768C105.088 49.536 104.448 50.176 103.552 50.176Z" fill="#ABBD81"/>
</g>
</g>
</svg>
