<svg width="672" height="499" viewBox="0 0 672 499" fill="none" xmlns="http://www.w3.org/2000/svg">
<g id="bike_man" clip-path="url(#clip0)">
<g id="right_wheel">
<path id="wheelright" d="M473.211 353.382L469.993 291.104L469.912 290.97L465.879 292.319L446.742 346.002L417.614 324.795L464.842 291.416L464.888 291.283L465.156 291.191L468.201 289.035L419.466 260.908L407.279 273.983L409.034 286.401L465.435 288.092L465.42 289.364L407.951 287.634L405.962 273.553L422.63 255.67L447.579 227.258L448.002 228.452L453.282 222.794L472.641 226.508L472.65 225.739L473.921 225.792L473.909 226.752L502.663 232.265L475.116 285.744L471.161 288.537L471.157 288.855L471.153 289.211L533.555 268.306L525.473 326.192L473.153 291.944L471.311 290.879L501.791 341.403L473.211 353.382ZM471.401 293.384L474.41 351.514L499.988 340.777L471.401 293.384ZM419.825 324.822L446.144 343.98L464.13 293.506L419.825 324.822ZM472.553 290.08L473.872 290.84L524.521 324.006L532.039 270.143L472.553 290.08ZM468.098 285.448L469.661 288.042L469.943 287.842L472.581 227.779L453.729 224.154L448.475 229.812L468.098 285.448ZM420.506 260.043L467.726 287.319L466.916 285.955L447.522 230.874L423.572 256.571L420.506 260.043ZM473.868 228.023L471.244 286.917L474.141 284.867L500.765 233.176L473.868 228.023Z" fill="#535461"/>
<path id="wheelout" d="M472.816 215.226C466.073 215.218 459.36 216.125 452.86 217.921C449.508 218.846 446.225 220.008 443.037 221.398C426.055 228.764 412.406 242.17 404.731 259.023C397.056 275.876 395.901 294.978 401.489 312.634C407.077 330.289 419.011 345.244 434.983 354.605C450.954 363.966 469.828 367.067 487.953 363.31C506.078 359.552 522.165 349.202 533.104 334.262C544.043 319.322 549.055 300.854 547.171 282.43C545.287 264.007 536.641 246.937 522.905 234.523C509.169 222.109 491.319 215.233 472.81 215.226H472.816ZM472.562 346.234C459.676 346.229 447.181 341.814 437.149 333.722C427.118 325.63 420.155 314.348 417.417 301.751C414.679 289.153 416.33 275.997 422.097 264.468C427.864 252.938 437.398 243.73 449.118 238.371C452.099 237.006 455.194 235.906 458.368 235.084C466.127 233.069 474.226 232.731 482.126 234.091C490.026 235.452 497.546 238.48 504.185 242.974C510.824 247.469 516.43 253.326 520.631 260.157C524.831 266.989 527.529 274.636 528.546 282.592C529.562 290.548 528.873 298.629 526.525 306.297C524.177 313.966 520.224 321.046 514.928 327.067C509.632 333.088 503.116 337.911 495.812 341.216C488.508 344.521 480.584 346.232 472.568 346.234H472.562Z" fill="#535461"/>
<path id="dot" d="M470.139 296.512C474.634 296.512 478.277 292.866 478.277 288.369C478.277 283.871 474.634 280.226 470.139 280.226C465.644 280.226 462 283.871 462 288.369C462 292.866 465.644 296.512 470.139 296.512Z" fill="#535461"/>
</g>
<g id="left_wheel">
<path id="wheelleft" d="M203.223 354.573L199.239 292.314L199.157 292.18L195.141 293.579L176.666 347.517L147.281 326.673L194.087 292.721L194.131 292.587L194.398 292.492L197.416 290.299L148.342 262.767L136.322 275.989L138.228 288.385L194.659 289.415V290.686L137.173 289.657L135 275.583L151.455 257.491L176.075 228.758L176.513 229.947L181.723 224.226L201.075 227.696V226.927L202.346 226.965V227.925L231.165 233.087L204.297 286.872L200.377 289.714V290.032V290.388L262.513 268.724L255.137 326.704L202.403 293.096L200.548 292.053L231.642 342.196L203.223 354.573ZM200.682 294.602L204.398 352.691L229.844 341.643L200.682 294.602ZM149.486 326.66L176.037 345.495L193.407 294.806L149.486 326.66ZM201.787 291.278L203.115 292.021L254.165 324.568L261.026 270.618L201.787 291.278ZM197.276 286.701L198.871 289.275L199.15 289.072L201.056 228.98L182.161 225.599L176.977 231.32L197.276 286.701ZM149.359 261.871L196.908 288.57L196.082 287.216L176.018 232.375L152.389 258.356L149.359 261.871ZM202.346 229.203L200.44 288.144L203.312 286.059L229.304 234.047L202.346 229.203Z" fill="#535461"/>
<path id="Vector" d="M271.663 276.542C269.115 265.215 263.956 254.64 256.599 245.661C253.868 242.324 250.856 239.227 247.596 236.405C235.063 225.579 219.292 219.222 202.758 218.333C186.224 217.445 169.863 222.074 156.243 231.494C142.623 240.915 132.514 254.594 127.504 270.384C122.494 286.174 122.865 303.182 128.561 318.738C134.256 334.294 144.952 347.517 158.971 356.333C172.989 365.15 189.537 369.059 206.016 367.448C222.496 365.837 237.974 358.797 250.022 347.433C262.07 336.069 270.006 321.023 272.584 304.659C273.184 300.806 273.486 296.912 273.486 293.013C273.491 287.472 272.879 281.948 271.663 276.542ZM198.478 349.233C186.894 349.221 175.595 345.639 166.118 338.976C156.64 332.312 149.444 322.89 145.507 311.99C141.57 301.09 141.084 289.241 144.115 278.055C147.146 266.869 153.546 256.888 162.446 249.469C171.346 242.051 182.314 237.555 193.857 236.593C205.401 235.632 216.961 238.25 226.965 244.093C236.968 249.936 244.931 258.72 249.769 269.251C254.608 279.781 256.087 291.547 254.007 302.949C251.624 315.944 244.763 327.692 234.617 336.149C224.471 344.606 211.683 349.236 198.478 349.233V349.233Z" fill="#535461"/>
<path id="Vector_2" d="M199.139 300.512C203.634 300.512 207.277 296.866 207.277 292.369C207.277 287.871 203.634 284.226 199.139 284.226C194.644 284.226 191 287.871 191 292.369C191 296.866 194.644 300.512 199.139 300.512Z" fill="#535461"/>
</g>
<g id="man _on_bike">
<path id="Vector_3" d="M289.576 258.766L262.443 231.976L253.964 240.572L281.097 267.363L289.576 258.766Z" fill="#7B7A92"/>
<path id="Vector_4" d="M350.651 131.302C350.651 131.302 425.399 128.759 426.924 138.428C428.448 148.097 352.176 144.022 352.176 144.022C352.176 144.022 346.077 137.913 350.651 131.302Z" fill="#535461"/>
<path id="Vector_5" opacity="0.05" d="M350.651 131.302C350.651 131.302 425.399 128.759 426.924 138.428C428.448 148.097 352.176 144.022 352.176 144.022C352.176 144.022 346.077 137.913 350.651 131.302Z" fill="black"/>
<path id="Vector_6" d="M290.141 169.971H276.92V284.953H290.141V169.971Z" fill="#7B7A92"/>
<path id="Vector_7" d="M289.15 160.436C287.295 160.292 285.45 160.044 283.623 159.692C276.456 158.319 258.387 155.439 253.526 160.327C247.427 166.43 249.46 177.116 265.731 178.642C282.002 180.167 309.97 176.099 315.567 169.99C315.567 169.964 305.446 161.688 289.15 160.436Z" fill="#535461"/>
<path id="Vector_8" d="M286.583 201.514L425.405 158.268L429.98 168.954L287.6 217.793L286.583 201.514Z" fill="#7B7A92"/>
<path id="Vector_9" d="M327.772 269.691L427.947 170.988L433.538 179.125L337.938 278.845L327.772 269.691Z" fill="#7B7A92"/>
<path id="Vector_10" opacity="0.1" d="M455.698 236.127C452.524 236.948 449.429 238.048 446.448 239.413L440.374 222.434C443.562 221.044 446.844 219.882 450.196 218.957L455.698 236.127Z" fill="black"/>
<path id="Vector_11" d="M472.694 285.971L465.578 290.039L415.932 151.25L413.709 145.039L425.405 138.422L428.334 147.563L472.694 285.971Z" fill="#7B7A92"/>
<path id="Vector_12" opacity="0.1" d="M428.334 147.563L415.932 151.25L413.709 145.039L425.405 138.422L428.334 147.563Z" fill="black"/>
<path id="Vector_13" d="M352.684 158.268L422.349 134.353C422.349 134.353 434.554 135.879 429.973 146.056L359.806 166.913C359.806 166.913 349.133 167.93 352.684 158.268Z" fill="#535461"/>
<path id="Vector_14" opacity="0.1" d="M274.124 290.802C274.124 294.701 273.822 298.595 273.222 302.448C267.123 302.009 260.82 301.373 254.645 300.738C256.017 293.179 255.846 285.42 254.143 277.929C260.159 276.658 266.303 275.444 272.301 274.344C273.516 279.745 274.128 285.265 274.124 290.802V290.802Z" fill="black"/>
<path id="Vector_15" opacity="0.1" d="M290.141 271.426V284.947H276.92V273.505C281.494 272.71 285.942 272.005 290.141 271.426Z" fill="black"/>
<path id="Vector_16" d="M204.713 290.567C204.713 290.567 311.501 262.596 320.142 273.27C328.783 283.943 337.938 298.195 311.012 303.28C284.086 308.366 202.699 294.629 202.699 294.629L204.713 290.567Z" fill="#7B7A92"/>
<path id="Vector_17" opacity="0.1" d="M257.237 243.45L243.666 255.877C241.263 252.79 238.546 249.961 235.559 247.435L248.228 234.194C251.49 237.016 254.504 240.113 257.237 243.45V243.45Z" fill="black"/>
<path id="Vector_18" d="M201.155 284.953L280.986 201.514L283.534 220.845L205.221 292.582L201.155 284.953Z" fill="#7B7A92"/>
<path id="Vector_19" opacity="0.1" d="M200.139 298.691C204.634 298.691 208.277 295.045 208.277 290.548C208.277 286.05 204.634 282.404 200.139 282.404C195.644 282.404 192 286.05 192 290.548C192 295.045 195.644 298.691 200.139 298.691Z" fill="black"/>
<path id="Vector_20" opacity="0.1" d="M469.39 297.928C473.885 297.928 477.529 294.282 477.529 289.785C477.529 285.287 473.885 281.642 469.39 281.642C464.895 281.642 461.251 285.287 461.251 289.785C461.251 294.282 464.895 297.928 469.39 297.928Z" fill="black"/>
<path id="Vector_21" opacity="0.1" d="M325.225 298.691C334.211 298.691 341.496 291.402 341.496 282.411C341.496 273.42 334.211 266.131 325.225 266.131C316.238 266.131 308.954 273.42 308.954 282.411C308.954 291.402 316.238 298.691 325.225 298.691Z" fill="black"/>
<path id="Vector_22" d="M326.248 298.691C335.234 298.691 342.519 291.402 342.519 282.411C342.519 273.42 335.234 266.131 326.248 266.131C317.261 266.131 309.976 273.42 309.976 282.411C309.976 291.402 317.261 298.691 326.248 298.691Z" fill="#535461"/>
<path id="Vector_23" d="M321.903 281.188L321.898 281.192C319.987 282.621 319.597 285.33 321.026 287.242L333.94 304.52C335.369 306.432 338.076 306.823 339.987 305.393L339.992 305.389C341.903 303.96 342.293 301.251 340.864 299.339L327.95 282.061C326.521 280.149 323.814 279.758 321.903 281.188Z" fill="#6C63FF"/>
<path id="Vector_24" d="M347.309 300.102H309.189V312.18H347.309V300.102Z" fill="#505057"/>
</g>
</g>
<defs>
<clipPath id="clip0">
<rect width="672" height="499" fill="white"/>
</clipPath>
</defs>
</svg>
