<svg width="672" height="499" viewBox="0 0 672 499" fill="none" xmlns="http://www.w3.org/2000/svg">
<g id="bike_man" clip-path="url(#clip0)">
<path id="Vector" d="M128.059 78.3785C124.577 82.6058 123.237 88.5494 121.737 94.1371C109.666 139.169 79.9191 175.39 46.0427 201.263C31.6967 212.222 14.2312 226.919 17.3698 246.568C19.0598 257.12 26.4742 264.888 31.9826 273.483C43.5395 291.479 47.288 315.94 41.7796 337.484C35.5151 361.996 18.0051 384.868 23.4246 409.653C26.7665 424.909 38.1137 435.767 49.0225 445.099C66.0411 459.648 83.602 473.277 101.705 485.986C113.84 494.504 126.75 502.794 140.893 503.874C153.345 504.828 165.544 500.092 177.368 495.42C187.698 491.332 198.289 487.079 206.631 478.892C212.076 473.546 216.416 466.649 222.464 462.275C236.67 452.002 254.917 458.512 271.208 462.911C309.646 473.234 350.784 469.465 387.361 452.269C443.467 425.888 486.232 370.488 541.113 340.764C564.71 327.98 590.377 320.047 612.227 303.583C624.536 294.208 635.115 282.755 643.485 269.739C660.004 244.241 668.937 211.732 666.358 179.91C663.778 148.088 649.324 117.422 626.624 99.4578C602.322 80.2283 571.628 76.6367 543.978 65.0927C515.426 53.1672 490.025 32.6727 461.746 19.8764C438.864 9.55075 413.961 4.48192 388.865 5.04182C363.769 5.60171 339.117 11.7761 316.717 23.112C285.941 38.6863 254.746 75.0221 220.469 77.7809C196.047 79.688 147.132 55.2268 128.059 78.3785Z" fill="url(#paint0_linear)"/>
<g id="right_wheel">
<path id="wheelright" d="M436.211 451.156L432.993 388.879L432.912 388.744L428.879 390.093L409.742 443.777L380.614 422.57L427.842 389.191L427.888 389.058L428.156 388.966L431.201 386.81L382.466 358.682L370.279 371.757L372.034 384.175L428.435 385.867L428.42 387.138L370.951 385.408L368.962 371.328L385.63 353.444L410.579 325.032L411.002 326.226L416.282 320.569L435.641 324.282L435.65 323.513L436.921 323.567L436.909 324.527L465.663 330.039L438.116 383.518L434.161 386.312L434.157 386.629L434.153 386.985L496.555 366.08L488.473 423.967L436.153 389.718L434.311 388.653L464.791 439.177L436.211 451.156ZM434.401 391.159L437.41 449.289L462.988 438.551L434.401 391.159ZM382.825 422.597L409.144 441.754L427.13 391.28L382.825 422.597ZM435.553 387.854L436.872 388.614L487.521 421.781L495.039 367.918L435.553 387.854ZM431.098 383.223L432.661 385.817L432.943 385.617L435.581 325.553L416.729 321.928L411.475 327.586L431.098 383.223ZM383.506 357.818L430.726 385.094L429.916 383.73L410.522 328.649L386.572 354.346L383.506 357.818ZM436.868 325.797L434.244 384.692L437.141 382.642L463.765 330.95L436.868 325.797Z" fill="#535461"/>
<path id="wheelout" d="M435.816 313C429.073 312.993 422.36 313.899 415.86 315.695C412.508 316.62 409.225 317.782 406.037 319.173C389.055 326.538 375.406 339.945 367.731 356.798C360.056 373.65 358.901 392.752 364.489 410.408C370.077 428.064 382.011 443.019 397.983 452.379C413.954 461.74 432.828 464.842 450.953 461.084C469.078 457.326 485.165 446.976 496.104 432.036C507.043 417.096 512.055 398.628 510.171 380.205C508.287 361.781 499.641 344.711 485.905 332.297C472.169 319.883 454.319 313.007 435.81 313H435.816ZM435.562 444.008C422.676 444.003 410.181 439.588 400.149 431.496C390.118 423.404 383.155 412.123 380.417 399.525C377.679 386.927 379.33 373.771 385.097 362.242C390.864 350.713 400.398 341.504 412.118 336.145C415.099 334.78 418.194 333.68 421.368 332.859C429.127 330.844 437.226 330.505 445.126 331.866C453.026 333.226 460.546 336.254 467.185 340.749C473.824 345.243 479.43 351.101 483.631 357.932C487.831 364.763 490.529 372.411 491.546 380.366C492.562 388.322 491.873 396.403 489.525 404.072C487.177 411.74 483.224 418.821 477.928 424.841C472.632 430.862 466.116 435.686 458.812 438.991C451.508 442.295 443.584 444.006 435.568 444.008H435.562Z" fill="#535461"/>
<path id="dot" d="M433.139 394.286C437.634 394.286 441.277 390.64 441.277 386.143C441.277 381.646 437.634 378 433.139 378C428.644 378 425 381.646 425 386.143C425 390.64 428.644 394.286 433.139 394.286Z" fill="#535461"/>
</g>
<g id="left_wheel">
<path id="wheelleft" d="M166.223 452.347L162.239 390.088L162.157 389.955L158.141 391.353L139.666 445.291L110.281 424.447L157.087 390.495L157.131 390.362L157.398 390.266L160.416 388.073L111.342 360.542L99.3215 373.764L101.228 386.16L157.659 387.189V388.461L100.173 387.431L98 373.357L114.455 355.265L139.075 326.532L139.513 327.721L144.723 322L164.075 325.471V324.702L165.346 324.74V325.7L194.165 330.861L167.297 384.647L163.377 387.488V387.806V388.162L225.513 366.498L218.137 424.479L165.403 390.87L163.548 389.828L194.642 439.97L166.223 452.347ZM163.682 392.377L167.398 450.466L192.844 439.417L163.682 392.377ZM112.486 424.434L139.037 443.27L156.407 392.58L112.486 424.434ZM164.787 389.052L166.115 389.796L217.165 422.343L224.026 368.392L164.787 389.052ZM160.276 384.475L161.871 387.05L162.15 386.846L164.056 326.755L145.161 323.373L139.977 329.094L160.276 384.475ZM112.359 359.645L159.908 386.344L159.082 384.99L139.018 330.149L115.389 356.13L112.359 359.645ZM165.346 326.977L163.44 385.918L166.312 383.833L192.304 331.821L165.346 326.977Z" fill="#535461"/>
<path id="Vector_2" d="M234.663 374.317C232.115 362.989 226.956 352.414 219.599 343.435C216.868 340.098 213.856 337.002 210.596 334.18C198.063 323.353 182.292 316.997 165.758 316.108C149.224 315.219 132.863 319.848 119.243 329.269C105.623 338.689 95.5143 352.368 90.5041 368.158C85.4939 383.948 85.8655 400.956 91.5606 416.512C97.2558 432.068 107.952 445.292 121.971 454.108C135.989 462.924 152.537 466.833 169.016 465.222C185.496 463.611 200.974 456.571 213.022 445.207C225.07 433.843 233.006 418.798 235.584 402.433C236.184 398.58 236.486 394.687 236.486 390.787C236.491 385.246 235.879 379.722 234.663 374.317ZM161.478 447.007C149.894 446.995 138.595 443.414 129.118 436.75C119.64 430.087 112.444 420.664 108.507 409.764C104.57 398.864 104.084 387.015 107.115 375.829C110.146 364.643 116.546 354.662 125.446 347.244C134.346 339.826 145.314 335.33 156.857 334.368C168.401 333.406 179.961 336.025 189.965 341.868C199.968 347.711 207.931 356.495 212.769 367.025C217.608 377.556 219.087 389.322 217.007 400.723C214.624 413.719 207.763 425.467 197.617 433.923C187.471 442.38 174.683 447.01 161.478 447.007V447.007Z" fill="#535461"/>
<path id="Vector_3" d="M162.139 398.286C166.634 398.286 170.277 394.64 170.277 390.143C170.277 385.646 166.634 382 162.139 382C157.644 382 154 385.646 154 390.143C154 394.64 157.644 398.286 162.139 398.286Z" fill="#535461"/>
</g>
<g id="man _on_bike">
<path id="Vector_4" d="M252.576 356.54L225.443 329.75L216.964 338.347L244.097 365.137L252.576 356.54Z" fill="#7B7A92"/>
<path id="Vector_5" d="M228.668 309.834C228.668 309.834 244.418 301.519 250.504 296.167C254.169 292.959 258.108 290.081 262.277 287.566L282.036 275.532L323.334 272.354L325.24 279.346C325.24 279.346 328.416 289.517 296.649 298.417C264.882 307.317 248.999 321.302 248.999 321.302C248.999 321.302 228.668 328.269 228.668 309.834Z" fill="#DB8B8B"/>
<path id="Vector_6" opacity="0.1" d="M250.682 319.922C249.558 320.78 248.999 321.276 248.999 321.276C248.999 321.276 228.668 328.269 228.668 309.834C228.668 309.834 229.653 309.313 231.209 308.442C232.782 311.004 234.985 313.12 237.607 314.588C240.23 316.056 243.185 316.827 246.19 316.826H248.344L250.682 319.922Z" fill="black"/>
<path id="Vector_7" opacity="0.05" d="M324.642 282.855C322.876 286.6 316.783 292.753 296.649 298.392C270.848 305.619 255.524 316.191 250.682 319.922C249.558 320.78 248.999 321.276 248.999 321.276C248.999 321.276 228.668 328.269 228.668 309.834C228.668 309.834 229.653 309.313 231.209 308.442C235.93 305.855 245.924 300.178 250.485 296.141C254.149 292.933 258.088 290.055 262.258 287.54L282.017 275.507L289.375 274.941L323.315 272.329L325.221 279.321C325.221 279.321 325.665 280.688 324.642 282.855Z" fill="black"/>
<path id="Vector_8" d="M228.985 305.702L212.149 316.826L261.451 358.146C261.451 358.146 268.694 353.696 264.882 348.611C264.882 348.611 252.175 337.804 251.54 322.548L247.728 317.462H245.574C241.932 317.463 238.38 316.331 235.408 314.225C232.437 312.118 230.192 309.14 228.985 305.702V305.702Z" fill="#ABB1D1"/>
<path id="Vector_9" opacity="0.1" d="M324.642 282.855C314.477 277.942 289.661 277.414 289.661 277.414L289.394 274.941L323.334 272.329L325.24 279.321C325.24 279.321 325.665 280.688 324.642 282.855Z" fill="black"/>
<path id="Vector_10" d="M289.661 276.143C289.661 276.143 319.522 276.778 327.146 283.135L323.334 206.217H282.036L289.661 276.143Z" fill="#ABB1D1"/>
<path id="Vector_11" d="M313.651 229.076C313.651 229.076 388.399 226.534 389.924 236.203C391.448 245.871 315.176 241.797 315.176 241.797C315.176 241.797 309.077 235.688 313.651 229.076Z" fill="#535461"/>
<path id="Vector_12" opacity="0.05" d="M313.651 229.076C313.651 229.076 388.399 226.534 389.924 236.203C391.448 245.871 315.176 241.797 315.176 241.797C315.176 241.797 309.077 235.688 313.651 229.076Z" fill="black"/>
<path id="Vector_13" d="M253.141 267.745H239.92V382.728H253.141V267.745Z" fill="#7B7A92"/>
<path id="Vector_14" d="M252.15 258.21C250.295 258.066 248.45 257.818 246.623 257.466C239.456 256.093 221.387 253.213 216.526 258.102C210.427 264.204 212.46 274.89 228.731 276.416C245.002 277.942 272.97 273.873 278.567 267.764C278.567 267.739 268.446 259.462 252.15 258.21Z" fill="#535461"/>
<path id="Vector_15" d="M249.583 299.288L388.405 256.042L392.98 266.728L250.6 315.568L249.583 299.288Z" fill="#7B7A92"/>
<path id="Vector_16" d="M290.772 367.465L390.947 268.762L396.538 276.899L300.938 376.619L290.772 367.465Z" fill="#7B7A92"/>
<path id="Vector_17" opacity="0.1" d="M418.698 333.901C415.524 334.722 412.429 335.822 409.448 337.187L403.374 320.208C406.562 318.818 409.844 317.656 413.196 316.731L418.698 333.901Z" fill="black"/>
<path id="Vector_18" d="M435.694 383.745L428.578 387.813L378.932 249.024L376.709 242.814L388.405 236.196L391.334 245.337L435.694 383.745Z" fill="#7B7A92"/>
<path id="Vector_19" opacity="0.1" d="M391.334 245.337L378.932 249.024L376.709 242.814L388.405 236.196L391.334 245.337Z" fill="black"/>
<path id="Vector_20" d="M315.684 256.042L385.349 232.128C385.349 232.128 397.554 233.653 392.973 243.831L322.806 264.688C322.806 264.688 312.133 265.705 315.684 256.042Z" fill="#535461"/>
<path id="Vector_21" opacity="0.1" d="M237.124 388.576C237.124 392.476 236.822 396.369 236.222 400.222C230.123 399.783 223.82 399.148 217.645 398.512C219.017 390.953 218.846 383.195 217.143 375.704C223.159 374.432 229.303 373.218 235.301 372.118C236.516 377.52 237.128 383.04 237.124 388.576V388.576Z" fill="black"/>
<path id="Vector_22" opacity="0.1" d="M253.141 369.201V382.722H239.92V371.279C244.494 370.485 248.942 369.779 253.141 369.201Z" fill="black"/>
<path id="Vector_23" d="M167.713 388.341C167.713 388.341 274.501 360.371 283.142 371.044C291.783 381.717 300.938 395.969 274.012 401.055C247.086 406.14 165.699 392.403 165.699 392.403L167.713 388.341Z" fill="#7B7A92"/>
<path id="Vector_24" opacity="0.1" d="M220.237 341.224L206.666 353.652C204.263 350.565 201.546 347.736 198.559 345.21L211.228 331.969C214.49 334.79 217.504 337.887 220.237 341.224V341.224Z" fill="black"/>
<path id="Vector_25" d="M164.155 382.728L243.986 299.288L246.534 318.619L168.221 390.356L164.155 382.728Z" fill="#7B7A92"/>
<path id="Vector_26" opacity="0.1" d="M163.139 396.465C167.634 396.465 171.277 392.819 171.277 388.322C171.277 383.825 167.634 380.179 163.139 380.179C158.644 380.179 155 383.825 155 388.322C155 392.819 158.644 396.465 163.139 396.465Z" fill="black"/>
<path id="Vector_27" opacity="0.1" d="M432.39 395.702C436.885 395.702 440.529 392.056 440.529 387.559C440.529 383.062 436.885 379.416 432.39 379.416C427.895 379.416 424.251 383.062 424.251 387.559C424.251 392.056 427.895 395.702 432.39 395.702Z" fill="black"/>
<path id="Vector_28" opacity="0.1" d="M288.225 396.465C297.211 396.465 304.496 389.176 304.496 380.185C304.496 371.194 297.211 363.905 288.225 363.905C279.238 363.905 271.954 371.194 271.954 380.185C271.954 389.176 279.238 396.465 288.225 396.465Z" fill="black"/>
<path id="Vector_29" d="M289.248 396.465C298.234 396.465 305.519 389.176 305.519 380.185C305.519 371.194 298.234 363.905 289.248 363.905C280.261 363.905 272.976 371.194 272.976 380.185C272.976 389.176 280.261 396.465 289.248 396.465Z" fill="#535461"/>
<path id="Vector_30" d="M284.903 378.962L284.898 378.966C282.987 380.396 282.597 383.105 284.026 385.016L296.94 402.295C298.369 404.206 301.076 404.597 302.987 403.168L302.992 403.164C304.903 401.734 305.293 399.025 303.864 397.113L290.95 379.835C289.521 377.923 286.814 377.532 284.903 378.962Z" fill="#6C63FF"/>
<path id="Vector_31" d="M362.725 154.091L361.213 173.232C361.039 175.656 361.07 178.091 361.308 180.51C361.505 182.652 361.308 186.403 359.211 192.124C356.519 199.433 355.128 207.156 355.101 214.945V236.73L340.488 234.187C340.488 234.187 341.123 203.675 338.582 198.589C336.04 193.504 340.488 148.37 340.488 148.37L362.725 154.091Z" fill="#DB8B8B"/>
<path id="Vector_32" opacity="0.05" d="M361.975 163.576L361.213 173.232C361.041 175.654 361.075 178.087 361.314 180.504C361.511 182.646 361.314 186.397 359.218 192.124C356.526 199.433 355.134 207.156 355.107 214.945V236.73L340.494 234.187C340.494 234.187 341.129 203.675 338.588 198.589C336.79 194.985 338.493 171.293 339.643 157.772C340.119 152.209 340.494 148.37 340.494 148.37L362.731 154.091L361.975 163.576Z" fill="black"/>
<path id="Vector_33" d="M290.309 300.299L284.813 331.574C284.12 335.75 283.057 339.856 281.636 343.843C278.415 352.654 280.474 365.005 282.036 371.743C282.729 374.718 283.307 376.6 283.307 376.6L266.788 385.5L261.706 381.685V379.143L261.07 322.567C257.258 313.667 258.529 300.318 261.07 295.232C261.793 293.561 262.301 291.806 262.582 290.007C263.853 283.192 264.247 273.619 264.247 273.619C264.247 273.619 274.412 256.455 286.484 267.898C290.931 272.112 292.621 277.624 292.977 282.9C293.6 291.933 290.309 300.299 290.309 300.299Z" fill="#DB8B8B"/>
<path id="Vector_34" opacity="0.1" d="M292.977 282.881C284.165 288.119 268.834 289.6 262.582 289.988C263.853 283.173 264.247 273.6 264.247 273.6C264.247 273.6 274.412 256.436 286.484 267.879C290.931 272.093 292.621 277.605 292.977 282.881Z" fill="black"/>
<path id="Vector_35" d="M314.439 267.243C307.683 270.843 301.298 275.101 295.379 279.957C285.213 288.221 259.799 288.856 259.799 288.856V279.321C260.435 267.879 249.634 255.165 235.021 219.567C225.688 196.835 228.274 183.968 231.362 177.611C233.115 174.02 235.021 172.526 235.021 172.526L314.439 187.782L317.279 196.301L323.334 214.481C323.334 214.481 301.097 215.753 297.285 217.66C293.473 219.567 296.014 236.73 296.014 236.73C292.202 254.529 314.439 267.243 314.439 267.243Z" fill="#ABB1D1"/>
<path id="Vector_36" opacity="0.1" d="M362.725 154.091L361.975 163.576C350.92 166.754 343.029 156.634 343.029 156.634C341.876 156.943 340.743 157.323 339.636 157.772C340.113 152.209 340.488 148.37 340.488 148.37L362.725 154.091Z" fill="black"/>
<path id="Vector_37" opacity="0.1" d="M317.279 196.301C316.98 199.269 316.98 201.132 316.98 201.132C316.98 201.132 302.367 213.21 277.589 194.775C252.811 176.34 230.574 181.426 230.574 181.426C230.574 181.426 230.834 179.951 231.362 177.611C233.115 174.02 235.021 172.526 235.021 172.526L314.439 187.782L317.279 196.301Z" fill="black"/>
<path id="Vector_38" d="M371.289 129.268C369.631 142.204 369.078 158.509 369.078 158.509C354.465 169.951 343.029 155.331 343.029 155.331C329.23 159.037 322.743 171.121 319.687 181.667C318.05 187.372 317.14 193.26 316.98 199.193C316.98 199.193 313.117 202.371 306.001 203.007C299.273 203.573 289.629 201.818 277.589 192.836C252.811 174.401 230.574 179.487 230.574 179.487C230.574 179.487 235.021 154.059 245.187 146.431C255.352 138.803 262.976 129.268 275.683 100.026C288.39 70.7846 314.439 77.7771 314.439 77.7771C314.439 77.7771 315.709 72.056 339.217 77.7771C344.943 79.2786 350.243 82.0877 354.7 85.9838C367.274 96.5616 373.373 112.969 371.289 129.268Z" fill="white"/>
<path id="Vector_39" d="M347.712 92.1118C347.68 92.9573 347.61 93.8981 347.496 94.947C346.225 106.389 344.954 105.118 330.977 107.661C322.285 109.244 317.768 101.978 315.595 96.2565C314.809 94.184 314.215 92.0432 313.822 89.8615L344.319 84.776C344.319 84.776 347.972 83.7526 347.712 92.1118Z" fill="#DB8B8B"/>
<path id="Vector_40" opacity="0.05" d="M319.687 181.699C318.05 187.403 317.141 193.292 316.98 199.225C316.98 199.225 313.117 202.403 306.001 203.039C305.801 202.634 305.648 202.207 305.544 201.767C304.273 196.046 294.743 185.875 294.743 185.875C288.39 180.154 287.119 169.983 287.119 169.983L276.636 139.152L273.142 136.292C273.142 136.292 287.755 124.85 300.461 134.385C313.168 143.92 309.356 164.262 309.356 164.262L311.897 171.255C314.534 173.479 317.215 177.402 319.687 181.699Z" fill="black"/>
<path id="Vector_41" d="M275.048 135.656L289.025 169.348C289.025 169.348 290.296 179.518 296.649 185.24C296.649 185.24 306.179 195.411 307.45 201.132C308.721 206.853 326.51 222.109 326.51 222.109C326.51 222.109 343.029 237.366 344.3 243.087C344.3 243.087 359.548 247.537 357.642 256.436C357.642 256.436 369.078 244.994 357.642 234.187C346.206 223.381 330.958 201.132 330.958 201.132C330.958 201.132 322.063 177.611 313.803 170.619L311.262 163.626C311.262 163.626 315.074 143.284 302.367 133.749C289.661 124.214 275.048 135.656 275.048 135.656Z" fill="#DB8B8B"/>
<path id="Vector_42" opacity="0.1" d="M283.307 376.581L266.788 385.48L261.706 381.666V379.124C267.413 378.718 272.959 377.044 277.938 374.222C279.463 373.358 280.899 372.506 282.049 371.756C282.716 374.699 283.307 376.581 283.307 376.581Z" fill="black"/>
<path id="Vector_43" opacity="0.1" d="M302.367 108.957L311.262 143.92C311.262 143.92 283.942 148.37 278.224 143.92C272.506 139.47 261.706 138.199 261.706 138.199C261.706 138.199 273.142 105.143 279.495 101.329C285.848 97.5152 302.367 108.957 302.367 108.957Z" fill="black"/>
<path id="Vector_44" d="M302.367 107.686L311.262 142.649C311.262 142.649 283.942 147.099 278.224 142.649C272.506 138.199 261.706 136.928 261.706 136.928C261.706 136.928 273.142 103.872 279.495 100.058C285.848 96.2438 302.367 107.686 302.367 107.686Z" fill="white"/>
<path id="Vector_45" opacity="0.1" d="M347.712 91.4761C345.932 93.9338 343.669 96.0013 341.061 97.5513C338.453 99.1014 335.556 100.101 332.548 100.49C329.54 100.878 326.484 100.646 323.569 99.8088C320.653 98.9715 317.94 97.5463 315.595 95.6208C314.809 93.5483 314.215 91.4075 313.822 89.2258L344.319 84.1403C344.319 84.1403 347.972 83.1169 347.712 91.4761Z" fill="black"/>
<path id="Vector_46" d="M351.924 77.8089C351.924 83.7097 349.581 89.3688 345.411 93.5413C341.241 97.7138 335.585 100.058 329.687 100.058C323.789 100.058 318.133 97.7138 313.963 93.5413C309.793 89.3688 307.45 83.7097 307.45 77.8089C307.45 77.4402 307.45 77.0715 307.45 76.7028C307.597 70.802 310.08 65.2012 314.354 61.1324C318.628 57.0636 324.342 54.8602 330.24 55.0069C336.137 55.1536 341.735 57.6383 345.802 61.9145C349.868 66.1907 352.071 71.9081 351.924 77.8089V77.8089Z" fill="#DB8B8B"/>
<path id="Vector_47" opacity="0.05" d="M248.046 146.145C248.046 146.145 264.565 150.595 269.647 162.037C274.73 173.48 288.479 175.571 288.479 175.571" fill="black"/>
<path id="Vector_48" d="M310.309 397.876H272.189V409.954H310.309V397.876Z" fill="#505057"/>
<path id="Vector_49" d="M277.913 375.462C281.325 373.555 284.317 371.648 284.578 370.86C284.578 370.86 293.187 379.95 300.855 382.772C303.434 383.725 305.902 384.953 308.219 386.434C311.256 388.341 315.589 390.585 319.522 390.585C319.522 390.585 328.416 398.213 311.262 399.485C294.108 400.756 254.081 396.306 254.081 396.306L256.623 380.414C264.048 380.85 271.441 379.13 277.913 375.462Z" fill="#ABB1D1"/>
</g>
<path id="hat" d="M289.574 64.7503C290.927 68.9967 297.426 69.1302 300.762 72.2578C302.496 73.8851 303.303 76.288 305.209 77.7374C307.859 79.7588 311.683 79.3139 315.057 78.8307C321.849 77.8645 329.143 77.286 335.267 80.2165C337.44 81.2527 339.391 82.7021 341.659 83.5475C343.927 84.393 346.741 84.4947 348.584 82.9945C350.058 81.793 350.598 79.8161 351.932 78.4938C352.968 77.4513 354.41 76.8665 355.592 75.9511C358.184 73.9932 359.302 70.802 360.039 67.7508C361.564 61.4702 362.002 54.7001 359.404 48.7438C356.805 42.7874 350.554 37.9371 343.73 38.2486C341.64 38.344 339.6 38.8843 337.516 39.1131C332.084 39.6662 326.716 37.8418 321.264 37.5303C319.683 37.3378 318.079 37.5567 316.607 38.166C315.498 38.7831 314.54 39.6411 313.805 40.6769C311.31 43.9478 309.601 47.7501 308.812 51.7887C308.176 54.8336 308.145 57.5925 304.415 58.0629C300.177 58.6223 286.708 55.7681 289.574 64.7503Z" fill="#472727"/>
</g>
<defs>
<linearGradient id="paint0_linear" x1="553.027" y1="74.3056" x2="23.7048" y2="431.267" gradientUnits="userSpaceOnUse">
<stop stop-color="#11DFC6"/>
<stop offset="0.9999" stop-color="#41148A" stop-opacity="0.1"/>
<stop offset="1" stop-color="#2E27A7" stop-opacity="0.28"/>
</linearGradient>
<clipPath id="clip0">
<rect width="672" height="499" fill="white"/>
</clipPath>
</defs>
</svg>
