<svg width="108" height="96" viewBox="0 0 108 96" fill="none" xmlns="http://www.w3.org/2000/svg">
<g id="Group">
<g id="Group_2">
<path id="Vector" d="M43.82 52.94C43.82 46.72 48.38 41.66 54 41.66C59.62 41.66 64.18 46.7 64.18 52.94H43.82Z" fill="#93DBE9" stroke="#5E6FA3" stroke-width="4.48" stroke-miterlimit="12.8" stroke-linecap="round" stroke-linejoin="round"/>
<path id="Vector_2" d="M87.28 65.18C87.28 45.05 20.72 45.05 20.72 65.18H87.28Z" fill="#93DBE9" stroke="#5E6FA3" stroke-width="4.48" stroke-miterlimit="12.8" stroke-linecap="round" stroke-linejoin="round"/>
</g>
<path id="Vector_3" d="M74.4 93.15H33.6C24.12 93.15 16.44 85.47 16.44 75.99V59.66C16.44 58.8 17.27 58.2 18.09 58.46L23.11 60.1C31.89 62.97 41.08 64.43 50.32 64.43H57.71C66.95 64.43 76.13 62.97 84.92 60.12L89.94 58.48C90.76 58.21 91.59 58.83 91.59 59.68V75.99C91.57 85.45 83.89 93.15 74.4 93.15Z" fill="#689CC5" stroke="#5E6FA3" stroke-width="4.48" stroke-miterlimit="12.8" stroke-linecap="round" stroke-linejoin="round"/>
<path id="Vector_4" d="M91.57 70.86L105.2 62.09" stroke="#5E6FA3" stroke-width="4.48" stroke-miterlimit="12.8" stroke-linecap="round" stroke-linejoin="round"/>
<path id="Vector_5" d="M16.43 70.86L2.8 62.09" stroke="#5E6FA3" stroke-width="4.48" stroke-miterlimit="12.8" stroke-linecap="round" stroke-linejoin="round"/>
<path id="Vector_6" d="M89.29 21.88C85.3 24.89 84.16 30.4 86.61 34.76C89.08 39.11 87.94 44.62 83.93 47.64" stroke="#5E6FA3" stroke-width="4.48" stroke-miterlimit="12.8" stroke-linecap="round" stroke-linejoin="round"/>
<path id="Vector_7" d="M74.76 2.85C79.6 8.23 79.7 16.37 74.99 21.87C70.28 27.36 70.38 35.5 75.22 40.89" stroke="#5E6FA3" stroke-width="4.48" stroke-miterlimit="12.8" stroke-linecap="round" stroke-linejoin="round"/>
</g>
</svg>
