<svg width="600" height="379" viewBox="0 0 600 379" fill="none" xmlns="http://www.w3.org/2000/svg">
<g id="undraw_activity_tracker_1l9o (1) 1">
<path id="Vector" d="M600 312.072H76.6979V310.543H599.236L600 312.072Z" fill="#2F2E41"/>
<path id="Vector_2" d="M131.719 18.2715H131.719C150.793 18.2715 166.256 35.4526 166.256 56.6466V83.5738H157.985L153.196 73.5971L154.393 83.5738H101.228L96.8742 74.5041L97.9626 83.5738H91.9767V62.4311C91.9767 38.0425 109.77 18.2715 131.719 18.2715Z" fill="#2F2E41"/>
<path id="Vector_3" d="M153.474 137.297L161.878 154.889L128.264 177.836L110.693 162.538C110.693 162.538 112.221 151.829 107.638 148.005C103.054 144.181 153.474 137.297 153.474 137.297Z" fill="#A0616A"/>
<path id="Vector_4" d="M144.307 67.6922C144.307 67.6922 132.848 84.5197 134.376 86.8143C135.904 89.109 107.638 82.225 107.638 82.225C107.638 82.225 122.153 63.1029 122.153 57.7487L144.307 67.6922Z" fill="#A0616A"/>
<path id="Vector_5" opacity="0.2" d="M144.307 67.6922C144.307 67.6922 132.848 84.5197 134.376 86.8143C135.904 89.109 107.638 82.225 107.638 82.225C107.638 82.225 122.153 63.1029 122.153 57.7487L144.307 67.6922Z" fill="black"/>
<path id="Vector_6" d="M136.938 69.9063C146.861 69.9063 154.904 61.8527 154.904 51.9182C154.904 41.9836 146.861 33.93 136.938 33.93C127.016 33.93 118.972 41.9836 118.972 51.9182C118.972 61.8527 127.016 69.9063 136.938 69.9063Z" fill="#A0616A"/>
<path id="Vector_7" d="M112.985 67.6922L139.723 78.4006V84.5197C139.723 84.5197 156.53 82.225 160.35 84.5197C164.17 86.8143 170.281 103.642 170.281 103.642C170.281 103.642 185.56 126.588 180.212 128.883C174.865 131.178 164.933 133.472 161.114 138.826C157.294 144.181 128.264 144.946 128.264 144.946C128.264 144.946 117.569 148.005 112.985 152.594C108.402 157.184 99.2342 152.594 99.2342 152.594L94.6505 78.4006L109.165 73.8113L112.985 67.6922Z" fill="#3F3D56"/>
<g id="hand">
<path id="Vector_8" d="M190.335 66.2978L181.338 35.3005C181.338 35.3005 175.381 16.0081 165.459 16.4412C155.537 16.8744 171.537 39.8509 171.537 39.8509L178.475 58.6883L179.959 65.7496L190.335 66.2978Z" fill="#A0616A"/>
<path id="Vector_9" d="M156.53 87.5792L164.933 85.2846C164.933 85.2846 177.92 82.9899 177.92 81.4602C177.92 79.9304 176.393 78.4006 177.92 78.4006C179.448 78.4006 182.504 78.4006 180.976 76.106C179.448 73.8113 181.74 69.9869 178.684 68.4571C175.629 66.9273 173.337 66.1625 174.865 65.3976C176.393 64.6327 171.045 52.3945 171.045 52.3945L175.629 50.0999L180.976 58.5136L181.74 47.0404L190.144 45.5106L193.199 59.2785C193.199 59.2785 208.478 79.1655 197.783 89.8738C187.088 100.582 166.461 108.996 166.461 108.996L156.53 87.5792Z" fill="#3F3D56"/>
</g>
<path id="Vector_10" d="M156.53 151.065L161.878 148.005C161.878 148.005 180.976 170.187 180.976 237.496C180.976 304.806 177.157 335.402 174.865 334.637C172.573 333.872 159.586 339.226 157.294 336.931C155.002 334.637 139.723 222.964 139.723 222.964C139.723 222.964 91.5947 338.461 83.9553 338.461C76.3158 338.461 64.0927 336.166 64.0927 331.577C64.0927 326.988 87.0111 265.797 87.0111 265.797C87.0111 265.797 101.526 158.713 108.402 157.949L110.866 156.446L129.028 168.657L156.53 151.065Z" fill="#2F2E41"/>
<path id="Vector_11" d="M161.878 334.637H168.753C168.753 334.637 174.865 340.756 177.157 355.289C179.448 369.821 181.74 379 171.809 379C161.878 379 155.766 376.705 156.53 371.351C157.294 365.997 155.002 363.702 155.002 363.702C155.002 363.702 151.182 356.818 151.946 352.994C152.71 349.169 155.002 336.931 155.002 336.931L161.878 334.637Z" fill="#2F2E41"/>
<path id="Vector_12" d="M83.1913 336.166C83.1913 336.166 90.8308 356.053 85.4832 360.643C80.1356 365.232 77.8437 365.997 77.8437 365.997C77.8437 365.997 70.2043 367.527 69.4403 369.821C68.6764 372.116 57.9812 380.53 48.0499 375.94C38.1186 371.351 44.2302 361.408 44.2302 361.408L67.1485 333.107C67.1485 333.107 75.5519 334.637 75.5519 336.166C75.5519 337.696 83.1913 336.166 83.1913 336.166Z" fill="#2F2E41"/>
<path id="Vector_13" d="M122.861 171.558C124.871 169.698 127.36 168.436 130.047 167.914L129.28 171.52C129.061 172.547 128.846 173.637 129.199 174.626C129.816 176.355 131.841 177.049 133.614 177.517C135.618 178.046 137.903 178.81 138.636 180.751C139.261 182.408 138.46 184.254 137.485 185.731C136.569 187.119 135.487 188.39 134.263 189.515C132.048 191.552 129.002 193.145 126.104 192.342C125.239 192.052 124.399 191.693 123.59 191.27C121.516 190.322 119.26 189.801 117.221 188.779C113.056 186.691 110.193 182.743 107.497 178.941C107.321 178.751 107.186 178.528 107.099 178.285C107.012 178.041 106.975 177.783 106.991 177.525C107.056 177.292 107.167 177.075 107.318 176.887C108.878 174.685 112.211 170.498 114.748 173.348C115.546 174.245 116.17 175.151 117.492 175.157C119.76 175.168 121.371 172.941 122.861 171.558Z" fill="#A0616A"/>
<path id="Vector_14" d="M99.9981 79.9304L94.6505 78.4006C94.6505 78.4006 84.7192 78.4006 81.6635 93.6983C78.6077 108.996 74.788 157.184 78.6077 164.832C82.4274 172.481 101.526 188.544 101.526 188.544L116.805 174.011L107.638 164.832C107.638 164.832 105.346 165.597 105.346 162.538C105.346 159.478 108.402 161.008 105.346 159.478C102.29 157.949 103.054 160.243 102.29 157.948C101.526 155.654 99.9981 79.9304 99.9981 79.9304Z" fill="#3F3D56"/>
<path id="Vector_15" d="M121.294 29.9013C124.384 25.9189 128.94 23.3964 134.026 23.3964H134.63C146.276 23.3964 155.718 33.9479 155.718 46.964V46.964H151.815L151.185 42.1611L150.261 46.964H127.116L125.177 42.9006L125.662 46.964H121.109C118.984 57.5288 122.037 68.0936 130.267 78.6585H122.511L118.633 70.5317L119.602 78.6585H104.817L101.908 59.9668C101.908 45.9685 110.031 34.0982 121.294 29.9013Z" fill="#2F2E41"/>
<g id="big_circle">
<path id="Vector_16" d="M354.01 0C301.351 0 258.517 42.887 258.517 95.6105C258.502 109.106 261.356 122.451 266.89 134.757C281.855 168.014 315.27 191.221 354.01 191.221C379.332 191.207 403.613 181.129 421.518 163.202C439.423 145.274 449.489 120.964 449.503 95.6105C449.503 42.8871 406.661 0 354.01 0ZM433.017 134.046C425.806 148.884 414.575 161.395 400.606 170.152C386.637 178.908 370.491 183.559 354.01 183.572C316.783 183.572 284.888 160.266 272.123 127.46C268.166 117.309 266.143 106.507 266.156 95.6105C266.156 47.1092 305.568 7.64884 354.01 7.64884C402.451 7.64884 441.863 47.1092 441.863 95.6105C441.88 108.93 438.854 122.077 433.017 134.046V134.046Z" fill="#3F3D56"/>
<path id="Vector_17" d="M437.631 141.741C429.383 156.719 417.275 169.21 402.568 177.913C387.861 186.615 371.093 191.211 354.01 191.221C315.27 191.221 281.855 168.014 266.889 134.757C268.532 132.241 270.276 129.808 272.122 127.46C284.888 160.266 316.783 183.572 354.01 183.572C370.491 183.559 386.637 178.908 400.606 170.152C414.575 161.395 425.806 148.884 433.017 134.046C434.667 136.532 436.205 139.097 437.631 141.741Z" fill="#6C63FF"/>
</g>
<path id="Vector_18" d="M330.465 104.856C333.06 104.839 335.581 105.725 337.597 107.362C339.613 108.999 340.999 111.285 341.519 113.832C342.038 116.378 341.659 119.026 340.445 121.323C339.232 123.621 337.26 125.425 334.866 126.429C332.471 127.432 329.803 127.573 327.317 126.826C324.831 126.079 322.681 124.492 321.233 122.335C319.786 120.177 319.131 117.584 319.381 114.997C319.631 112.41 320.77 109.991 322.603 108.151C323.631 107.109 324.855 106.28 326.204 105.715C327.554 105.149 329.002 104.857 330.465 104.856V104.856ZM330.465 100.075C327.316 100.074 324.238 101.007 321.619 102.757C319.001 104.507 316.959 106.995 315.753 109.906C314.546 112.818 314.229 116.022 314.842 119.114C315.454 122.206 316.969 125.047 319.194 127.277C321.419 129.507 324.255 131.027 327.342 131.643C330.43 132.26 333.631 131.946 336.54 130.741C339.449 129.537 341.936 127.495 343.687 124.875C345.437 122.255 346.373 119.174 346.374 116.022C346.366 111.798 344.687 107.75 341.706 104.762C338.725 101.773 334.683 100.089 330.465 100.075V100.075ZM363.631 77.2825C364.349 77.2861 365.06 77.1473 365.724 76.874C366.388 76.6008 366.991 76.1985 367.498 75.6904C368.005 75.1823 368.407 74.5786 368.68 73.9141C368.953 73.2496 369.092 72.5375 369.088 71.819C369.095 71.1041 368.959 70.3951 368.689 69.7333C368.419 69.0715 368.02 68.4702 367.515 67.9647C367.01 67.4592 366.41 67.0595 365.749 66.7891C365.088 66.5187 364.379 66.3829 363.665 66.3897C362.948 66.383 362.237 66.5183 361.572 66.7879C360.907 67.0575 360.302 67.4561 359.792 67.9607C359.282 68.4653 358.876 69.0659 358.598 69.7281C358.321 70.3902 358.177 71.1008 358.175 71.8189C358.172 72.537 358.312 73.2485 358.585 73.9124C358.859 74.5763 359.261 75.1794 359.768 75.6872C360.275 76.195 360.877 76.5974 361.54 76.8712C362.204 77.1449 362.914 77.2847 363.631 77.2825V77.2825ZM375.039 104.856C377.635 104.839 380.156 105.725 382.172 107.362C384.188 108.999 385.574 111.285 386.093 113.832C386.613 116.378 386.234 119.026 385.02 121.323C383.807 123.621 381.835 125.425 379.44 126.429C377.046 127.432 374.378 127.573 371.892 126.826C369.406 126.079 367.255 124.492 365.808 122.335C364.361 120.177 363.706 117.584 363.956 114.997C364.206 112.41 365.345 109.991 367.178 108.151C368.206 107.109 369.43 106.28 370.779 105.715C372.128 105.149 373.577 104.857 375.039 104.856V104.856ZM375.039 100.075C371.893 100.075 368.817 101.01 366.2 102.76C363.584 104.51 361.545 106.998 360.341 109.909C359.136 112.82 358.821 116.022 359.435 119.112C360.049 122.202 361.564 125.041 363.789 127.269C366.014 129.496 368.849 131.013 371.936 131.628C375.022 132.243 378.221 131.927 381.128 130.722C384.035 129.516 386.52 127.474 388.268 124.855C390.016 122.235 390.949 119.155 390.949 116.005C390.936 111.784 389.256 107.74 386.275 104.756C383.294 101.771 379.255 100.089 375.039 100.075V100.075Z" fill="#6C63FF"/>
<path id="Vector_19" d="M371.851 88.2435H363.666L358.635 77.9825C358.229 77.2629 357.662 76.6475 356.978 76.1845C356.295 75.7216 355.513 75.4238 354.695 75.3146C353.877 75.2054 353.044 75.2877 352.263 75.5551C351.483 75.8225 350.774 76.2677 350.194 76.8556L337.968 88.6533C336.967 89.6761 336.399 91.046 336.382 92.4777C336.382 95.4485 338.53 96.5071 339.536 97.1046C347.295 101.578 350.024 102.073 350.024 104.31V115.561C350.024 116.285 350.311 116.98 350.823 117.492C351.334 118.005 352.028 118.293 352.752 118.293C353.476 118.293 354.17 118.005 354.681 117.492C355.193 116.98 355.48 116.285 355.48 115.561V100.195C355.48 97.9412 350.296 96.0973 347.244 93.707L355.583 84.9143C358.772 89.7801 360.238 93.707 362.063 93.707H371.851C372.574 93.707 373.268 93.4192 373.78 92.9069C374.292 92.3946 374.579 91.6998 374.579 90.9753C374.579 90.2508 374.292 89.5559 373.78 89.0436C373.268 88.5314 372.574 88.2436 371.851 88.2436L371.851 88.2435Z" fill="#6C63FF"/>
<path id="Vector_20" d="M279.395 235.994C277.044 235.994 275.098 242.846 274.721 251.829H229.505C229.128 242.846 227.182 235.994 224.832 235.994C222.211 235.994 220.087 244.502 220.087 254.996C220.087 265.49 222.211 273.998 224.832 273.998C227.182 273.998 229.128 267.146 229.505 258.163H274.721C275.098 267.146 277.044 273.998 279.395 273.998C282.015 273.998 284.139 265.49 284.139 254.996C284.139 244.502 282.015 235.994 279.395 235.994Z" fill="#6C63FF"/>
<g id="small_circle">
<path id="Vector_21" d="M301.42 226.941C294.718 214.915 283.868 205.747 270.901 201.153C257.934 196.56 243.739 196.856 230.975 201.987C218.21 207.118 207.751 216.731 201.556 229.027C195.361 241.323 193.855 255.457 197.319 268.785C200.784 282.113 208.982 293.719 220.377 301.431C231.773 309.142 245.586 312.431 259.229 310.68C272.872 308.93 285.41 302.26 294.495 291.92C303.581 281.58 308.59 268.279 308.586 254.507C308.581 244.858 306.114 235.369 301.42 226.941V226.941ZM252.023 306.604C241.742 306.596 231.693 303.536 223.148 297.812C214.603 292.088 207.944 283.956 204.014 274.444C200.083 264.931 199.057 254.466 201.066 244.37C203.074 234.275 208.026 225.002 215.297 217.723C222.568 210.445 231.83 205.488 241.914 203.478C251.997 201.469 262.45 202.498 271.95 206.434C281.449 210.371 289.571 217.039 295.286 225.596C301.002 234.152 304.057 244.213 304.063 254.507C304.097 261.359 302.774 268.149 300.171 274.486C297.568 280.822 293.736 286.579 288.896 291.424C284.057 296.268 278.307 300.104 271.978 302.71C265.649 305.315 258.866 306.639 252.023 306.604V306.604Z" fill="#3F3D56"/>
<path id="Vector_22" d="M308.586 254.507C308.591 264.708 305.842 274.721 300.631 283.486C295.42 292.252 287.94 299.444 278.983 304.304C270.025 309.163 259.922 311.509 249.742 311.092C239.562 310.676 229.684 307.513 221.152 301.938C220.177 299.517 219.365 297.033 218.723 294.503C228.452 302.639 240.815 306.938 253.486 306.589C266.158 306.241 278.267 301.271 287.535 292.612C296.804 283.954 302.595 272.204 303.82 259.571C305.044 246.938 301.618 234.293 294.185 224.012C296.66 224.824 299.077 225.803 301.42 226.941C306.13 235.363 308.597 244.855 308.586 254.507V254.507Z" fill="#6C63FF"/>
</g>
<g id="small_circle_right">
<path id="Vector_23" d="M455.996 197.875C448.569 197.875 441.213 199.34 434.351 202.186C427.488 205.032 421.253 209.204 416.001 214.463C410.748 219.721 406.582 225.964 403.74 232.835C400.897 239.706 399.434 247.07 399.434 254.507C399.434 261.944 400.897 269.309 403.74 276.18C406.582 283.051 410.748 289.294 416.001 294.552C421.253 299.811 427.488 303.983 434.351 306.829C441.213 309.675 448.569 311.139 455.996 311.139C456.363 311.139 456.722 311.139 457.089 311.124C471.993 310.836 486.18 304.67 496.567 293.965C506.954 283.26 512.7 268.882 512.556 253.958C512.412 239.034 506.39 224.77 495.798 214.268C485.207 203.766 470.903 197.875 455.996 197.875V197.875ZM467.524 305.311C460.385 306.934 452.984 307.031 445.804 305.595C438.625 304.158 431.829 301.221 425.861 296.976C419.893 292.73 414.887 287.271 411.169 280.956C407.452 274.64 405.108 267.611 404.29 260.326C403.472 253.042 404.198 245.667 406.421 238.683C408.645 231.699 412.315 225.263 417.192 219.796C422.069 214.329 428.044 209.954 434.725 206.957C441.407 203.96 448.645 202.408 455.966 202.404H455.996C468.794 202.403 481.142 207.123 490.683 215.664C500.223 224.204 506.286 235.964 507.712 248.697C509.138 261.43 505.829 274.243 498.415 284.687C491.001 295.131 480.004 302.473 467.524 305.311V305.311Z" fill="#3F3D56"/>
<path id="Vector_24" d="M467.524 305.311C464.254 307.602 460.757 309.55 457.089 311.124C456.722 311.139 456.363 311.139 455.996 311.139C441.998 311.139 428.496 305.942 418.103 296.552C407.71 287.162 401.164 274.247 399.731 260.304C398.298 246.362 402.08 232.383 410.345 221.07C418.61 209.758 430.771 201.916 444.476 199.061C448.411 199.775 452.261 200.896 455.966 202.404C448.645 202.409 441.408 203.961 434.727 206.958C428.046 209.956 422.072 214.331 417.195 219.797C412.318 225.264 408.649 231.7 406.426 238.683C404.203 245.667 403.477 253.042 404.295 260.326C405.113 267.61 407.457 274.639 411.174 280.954C414.89 287.269 419.896 292.728 425.864 296.973C431.831 301.219 438.627 304.156 445.805 305.593C452.984 307.03 460.385 306.934 467.524 305.311Z" fill="#6C63FF"/>
</g>
<path id="Vector_25" d="M483.9 252.1C482.393 252.024 480.903 252.444 479.657 253.296C478.411 254.147 477.477 255.384 476.998 256.817H471.428L467.361 244.573C467.21 244.114 466.919 243.714 466.528 243.431C466.137 243.148 465.667 242.996 465.184 242.996H465.142C464.652 243.003 464.178 243.169 463.791 243.469C463.404 243.769 463.124 244.186 462.994 244.659L456.621 266.924L449.132 221.891C449.045 221.37 448.782 220.894 448.386 220.545C447.991 220.195 447.487 219.992 446.96 219.97C446.432 219.948 445.913 220.109 445.49 220.425C445.067 220.74 444.765 221.192 444.636 221.705L437.046 256.817H428.541C427.933 256.817 427.35 257.058 426.92 257.489C426.491 257.919 426.249 258.502 426.249 259.111C426.249 259.719 426.491 260.302 426.92 260.733C427.35 261.163 427.933 261.405 428.541 261.405H438.851C439.361 261.405 439.857 261.235 440.259 260.92C440.662 260.606 440.947 260.166 441.07 259.67L446.426 233.547L453.772 277.692C453.856 278.206 454.114 278.676 454.502 279.023C454.89 279.37 455.386 279.573 455.905 279.599H456.034C456.532 279.598 457.016 279.435 457.414 279.135C457.812 278.835 458.101 278.414 458.239 277.935L465.356 253.046L467.605 259.827C467.758 260.285 468.05 260.683 468.44 260.965C468.831 261.248 469.299 261.402 469.781 261.405H477.098C477.536 262.565 478.278 263.585 479.247 264.357C480.216 265.13 481.375 265.626 482.602 265.793C483.829 265.961 485.079 265.793 486.219 265.308C487.358 264.823 488.346 264.039 489.078 263.038C489.809 262.038 490.257 260.858 490.374 259.623C490.491 258.389 490.273 257.146 489.743 256.025C489.212 254.905 488.389 253.948 487.361 253.257C486.333 252.566 485.137 252.166 483.9 252.1V252.1Z" fill="#6C63FF"/>
</g>
</svg>
